<svg width="24" height="24" viewBox="0 0 24 24" fill="none" xmlns="http://www.w3.org/2000/svg">
<path fill-rule="evenodd" clip-rule="evenodd" d="M1.70711 2.29289C1.31658 1.90237 0.683418 1.90237 0.292894 2.29289C-0.0976308 2.68342 -0.0976308 3.31658 0.292894 3.70711L18.2929 21.7071C18.6834 22.0976 19.3166 22.0976 19.7071 21.7071C20.0976 21.3166 20.0976 20.6834 19.7071 20.2929L17.9999 18.5857V15.7143L22.4186 18.8705C23.0805 19.3433 23.9999 18.8702 23.9999 18.0568V5.94317C23.9999 5.1298 23.0805 4.65667 22.4186 5.12944L17.9563 8.31681C17.954 8.28409 17.9515 8.25174 17.9489 8.21978C17.8961 7.5743 17.7839 6.99586 17.5094 6.45704C17.078 5.61031 16.3896 4.9219 15.5428 4.49047C15.004 4.21593 14.4256 4.10374 13.7801 4.05101C13.1556 3.99998 12.3863 3.99999 11.442 4H11.442L3.41421 4L1.70711 2.29289ZM5.41422 6L15.9999 16.5857V10.6C15.9999 9.60341 15.9991 8.91611 15.9555 8.38264C15.9129 7.86085 15.8343 7.5749 15.7274 7.36502C15.4877 6.89462 15.1053 6.51217 14.6349 6.27248C14.425 6.16555 14.139 6.087 13.6172 6.04436C13.0838 6.00078 12.3965 6 11.3999 6H5.41422ZM6.6 17.9995C5.60341 17.9995 4.9161 17.9987 4.38264 17.9551C3.86085 17.9125 3.5749 17.834 3.36502 17.727C2.89462 17.4873 2.51217 17.1049 2.27248 16.6345C2.16555 16.4246 2.087 16.1387 2.04436 15.6169C2.00078 15.0834 2 14.3961 2 13.3995L2 8.99951C2 8.44723 1.55229 7.99951 1 7.99951C0.447716 7.99951 3.19647e-07 8.44723 3.19647e-07 8.99951V13.4416V13.4417C-1.06339e-05 14.386 -1.95548e-05 15.1552 0.0510061 15.7797C0.103743 16.4252 0.215932 17.0037 0.490471 17.5425C0.921901 18.3892 1.61031 19.0776 2.45704 19.509C2.99586 19.7836 3.5743 19.8958 4.21978 19.9485C4.84429 19.9995 5.6135 19.9995 6.55776 19.9995H6.55785H11C11.5523 19.9995 12 19.5518 12 18.9995C12 18.4472 11.5523 17.9995 11 17.9995H6.6Z" fill="white"/>
</svg>
