<svg width="24" height="24" viewBox="0 0 24 24" fill="none" xmlns="http://www.w3.org/2000/svg">
<path fill-rule="evenodd" clip-rule="evenodd" d="M8 6.58579V5C8 2.79086 9.79086 1 12 1C14.2091 1 16 2.79086 16 5V13C16 13.4466 15.8536 13.8591 15.6062 14.1919L17.3189 15.9047C17.3595 15.8567 17.4012 15.8041 17.443 15.747C17.7195 15.3691 18 14.7963 18 14V10.5C18 9.94771 18.4477 9.5 19 9.5C19.5523 9.5 20 9.94771 20 10.5V14C20 15.3037 19.5305 16.2809 19.057 16.928C18.9485 17.0763 18.8397 17.2075 18.7361 17.3219L21.7071 20.2929C22.0976 20.6834 22.0976 21.3166 21.7071 21.7071C21.3166 22.0976 20.6834 22.0976 20.2929 21.7071L2.29289 3.70711C1.90237 3.31658 1.90237 2.68342 2.29289 2.29289C2.68342 1.90237 3.31658 1.90237 3.70711 2.29289L8 6.58579ZM5 9.5C5.55228 9.5 6 9.94771 6 10.5V14C6 15.6569 7.34315 17 9 17H12C12.5523 17 13 17.4477 13 18V22C13 22.5523 12.5523 23 12 23C11.4477 23 11 22.5523 11 22V19H9C6.23858 19 4 16.7614 4 14V10.5C4 9.94771 4.44772 9.5 5 9.5Z" fill="white"/>
</svg>
